<?xml version="1.0" encoding="utf-8"?>
<svg version="1.1" xmlns:xlink="http://www.w3.org/1999/xlink" width="146px" height="31px" xmlns="http://www.w3.org/2000/svg">
  <defs>
    <mask fill="white" id="clip14">
      <path d="M 0 31  L 0 0  L 55.7407407407406 0  L 146 0  L 146 31  L 105.740740740741 31  L 0 31  Z " fill-rule="evenodd" />
    </mask>
  </defs>
  <g transform="matrix(1 0 0 1 -735 -149 )">
    <path d="M 0 31  L 0 0  L 55.7407407407406 0  L 146 0  L 146 31  L 105.740740740741 31  L 0 31  Z " fill-rule="nonzero" fill="#ffffff" stroke="none" transform="matrix(1 0 0 1 735 149 )" />
    <path d="M 0 31  L 0 0  L 55.7407407407406 0  L 146 0  L 146 31  L 105.740740740741 31  L 0 31  Z " stroke-width="2" stroke="#797979" fill="none" transform="matrix(1 0 0 1 735 149 )" mask="url(#clip14)" />
  </g>
</svg>