<?xml version="1.0" encoding="utf-8"?>
<svg version="1.1" xmlns:xlink="http://www.w3.org/1999/xlink" width="79px" height="20px" xmlns="http://www.w3.org/2000/svg">
  <defs>
    <mask fill="white" id="clip18">
      <path d="M 0 15  L 0 5  C 0 2.19999999999999  2.19999999999999 0  5 0  L 44 0  L 74 0  C 76.8 0  79 2.19999999999999  79 5  L 79 15  C 79 17.8  76.8 20  74 20  L 5 20  C 2.19999999999999 20  0 17.8  0 15  Z " fill-rule="evenodd" />
    </mask>
  </defs>
  <g transform="matrix(1 0 0 1 -237 -130 )">
    <path d="M 0 15  L 0 5  C 0 2.19999999999999  2.19999999999999 0  5 0  L 44 0  L 74 0  C 76.8 0  79 2.19999999999999  79 5  L 79 15  C 79 17.8  76.8 20  74 20  L 5 20  C 2.19999999999999 20  0 17.8  0 15  Z " fill-rule="nonzero" fill="#ffffff" stroke="none" transform="matrix(1 0 0 1 237 130 )" />
    <path d="M 0 15  L 0 5  C 0 2.19999999999999  2.19999999999999 0  5 0  L 44 0  L 74 0  C 76.8 0  79 2.19999999999999  79 5  L 79 15  C 79 17.8  76.8 20  74 20  L 5 20  C 2.19999999999999 20  0 17.8  0 15  Z " stroke-width="2" stroke="#797979" fill="none" transform="matrix(1 0 0 1 237 130 )" mask="url(#clip18)" />
  </g>
</svg>